<mxfile host="app.diagrams.net" modified="2024-03-24T18:16:19.528Z" agent="Mozilla/5.0 (Windows NT 10.0; Win64; x64) AppleWebKit/537.36 (KHTML, like Gecko) Chrome/122.0.0.0 Safari/537.36" etag="9kFIhYCJQ9thyd2vwyeY" version="22.1.21" type="github">
  <diagram name="Page-1" id="HiKN9NlP_0fJZptyyh3U">
    <mxGraphModel dx="2537" dy="2018" grid="1" gridSize="10" guides="1" tooltips="1" connect="1" arrows="1" fold="1" page="1" pageScale="1" pageWidth="850" pageHeight="1100" math="0" shadow="0">
      <root>
        <mxCell id="0" />
        <mxCell id="1" parent="0" />
        <mxCell id="34_nBhXDfNt7atw4xFl9-28" value="" style="rounded=0;whiteSpace=wrap;html=1;" vertex="1" parent="1">
          <mxGeometry x="-440" y="-40" width="1640" height="920" as="geometry" />
        </mxCell>
        <mxCell id="34_nBhXDfNt7atw4xFl9-1" value="" style="shape=image;verticalLabelPosition=bottom;labelBackgroundColor=default;verticalAlign=top;aspect=fixed;imageAspect=0;image=https://thehealthcaretechnologyreport.com/wp-content/uploads/2023/03/ChatGPT.jpeg;" vertex="1" parent="1">
          <mxGeometry x="-364" y="120" width="195.55" height="110" as="geometry" />
        </mxCell>
        <mxCell id="34_nBhXDfNt7atw4xFl9-2" value="" style="shape=image;verticalLabelPosition=bottom;labelBackgroundColor=default;verticalAlign=top;aspect=fixed;imageAspect=0;image=https://storage.googleapis.com/gweb-uniblog-publish-prod/images/Gemini_SS.width-1300.jpg;" vertex="1" parent="1">
          <mxGeometry x="-364" y="240" width="195.55" height="110" as="geometry" />
        </mxCell>
        <mxCell id="34_nBhXDfNt7atw4xFl9-3" value="" style="shape=image;verticalLabelPosition=bottom;labelBackgroundColor=default;verticalAlign=top;aspect=fixed;imageAspect=0;image=https://claude.ai/images/claude_ogimage.png;" vertex="1" parent="1">
          <mxGeometry x="-361.8" y="360" width="195.59" height="110" as="geometry" />
        </mxCell>
        <mxCell id="34_nBhXDfNt7atw4xFl9-4" value="" style="shape=image;verticalLabelPosition=bottom;labelBackgroundColor=default;verticalAlign=top;aspect=fixed;imageAspect=0;image=https://wow.groq.com/wp-content/uploads/2023/03/og-image-groq.jpg;" vertex="1" parent="1">
          <mxGeometry x="-364" y="480" width="200" height="105" as="geometry" />
        </mxCell>
        <mxCell id="34_nBhXDfNt7atw4xFl9-9" value="" style="shape=image;verticalLabelPosition=bottom;labelBackgroundColor=default;verticalAlign=top;aspect=fixed;imageAspect=0;image=https://miro.medium.com/v2/resize:fit:1400/1*AofdeQ5957OQ54HVQBfAfg.jpeg;" vertex="1" parent="1">
          <mxGeometry x="-364.01" y="600" width="195.56" height="110" as="geometry" />
        </mxCell>
        <mxCell id="34_nBhXDfNt7atw4xFl9-10" value="&lt;font style=&quot;font-size: 26px;&quot;&gt;....&lt;/font&gt;" style="rounded=0;whiteSpace=wrap;html=1;" vertex="1" parent="1">
          <mxGeometry x="-364.01" y="720" width="200.01" height="90" as="geometry" />
        </mxCell>
        <mxCell id="34_nBhXDfNt7atw4xFl9-25" style="edgeStyle=orthogonalEdgeStyle;rounded=0;orthogonalLoop=1;jettySize=auto;html=1;entryX=0;entryY=0.5;entryDx=0;entryDy=0;" edge="1" parent="1" source="34_nBhXDfNt7atw4xFl9-11" target="34_nBhXDfNt7atw4xFl9-22">
          <mxGeometry relative="1" as="geometry" />
        </mxCell>
        <mxCell id="34_nBhXDfNt7atw4xFl9-11" value="" style="shape=curlyBracket;whiteSpace=wrap;html=1;rounded=1;flipH=1;labelPosition=right;verticalLabelPosition=middle;align=left;verticalAlign=middle;strokeWidth=5;" vertex="1" parent="1">
          <mxGeometry x="-31" y="120" width="20" height="690" as="geometry" />
        </mxCell>
        <mxCell id="34_nBhXDfNt7atw4xFl9-12" value="&lt;font style=&quot;font-size: 20px;&quot;&gt;&lt;b&gt;API Keys&lt;/b&gt;&lt;/font&gt;" style="text;html=1;strokeColor=none;fillColor=none;align=center;verticalAlign=middle;whiteSpace=wrap;rounded=0;" vertex="1" parent="1">
          <mxGeometry x="-150" y="444" width="100" height="30" as="geometry" />
        </mxCell>
        <mxCell id="34_nBhXDfNt7atw4xFl9-13" value="" style="rounded=0;whiteSpace=wrap;html=1;" vertex="1" parent="1">
          <mxGeometry x="490" y="270" width="660" height="380" as="geometry" />
        </mxCell>
        <mxCell id="34_nBhXDfNt7atw4xFl9-14" value="&lt;font style=&quot;font-size: 20px;&quot;&gt;&lt;b&gt;Vultr&lt;/b&gt;&lt;/font&gt;" style="text;html=1;strokeColor=none;fillColor=none;align=center;verticalAlign=middle;whiteSpace=wrap;rounded=0;" vertex="1" parent="1">
          <mxGeometry x="1060" y="300" width="60" height="30" as="geometry" />
        </mxCell>
        <mxCell id="34_nBhXDfNt7atw4xFl9-15" value="&lt;font style=&quot;font-size: 20px;&quot;&gt;&lt;b&gt;Docker&lt;/b&gt;&lt;/font&gt;" style="rounded=0;whiteSpace=wrap;html=1;" vertex="1" parent="1">
          <mxGeometry x="720" y="410" width="170" height="110" as="geometry" />
        </mxCell>
        <mxCell id="34_nBhXDfNt7atw4xFl9-17" value="&lt;font style=&quot;font-size: 16px;&quot;&gt;&lt;b&gt;Deploy&lt;/b&gt;&lt;/font&gt;" style="text;html=1;strokeColor=none;fillColor=none;align=center;verticalAlign=middle;whiteSpace=wrap;rounded=0;" vertex="1" parent="1">
          <mxGeometry x="365" y="435" width="60" height="30" as="geometry" />
        </mxCell>
        <mxCell id="34_nBhXDfNt7atw4xFl9-18" value="" style="sketch=0;outlineConnect=0;fontColor=#232F3E;gradientColor=none;fillColor=#232F3D;strokeColor=none;dashed=0;verticalLabelPosition=bottom;verticalAlign=top;align=center;html=1;fontSize=12;fontStyle=0;aspect=fixed;pointerEvents=1;shape=mxgraph.aws4.users;" vertex="1" parent="1">
          <mxGeometry x="766" y="-10" width="78" height="78" as="geometry" />
        </mxCell>
        <mxCell id="34_nBhXDfNt7atw4xFl9-19" value="" style="endArrow=classic;html=1;rounded=0;exitX=0.5;exitY=0;exitDx=0;exitDy=0;" edge="1" parent="1" source="34_nBhXDfNt7atw4xFl9-15" target="34_nBhXDfNt7atw4xFl9-18">
          <mxGeometry width="50" height="50" relative="1" as="geometry">
            <mxPoint x="430" y="390" as="sourcePoint" />
            <mxPoint x="480" y="340" as="targetPoint" />
          </mxGeometry>
        </mxCell>
        <mxCell id="34_nBhXDfNt7atw4xFl9-21" value="&lt;font style=&quot;font-size: 18px;&quot;&gt;&lt;b&gt;Github&lt;/b&gt;&lt;/font&gt;" style="text;html=1;strokeColor=none;fillColor=none;align=center;verticalAlign=middle;whiteSpace=wrap;rounded=0;" vertex="1" parent="1">
          <mxGeometry x="210" y="400" width="60" height="30" as="geometry" />
        </mxCell>
        <mxCell id="34_nBhXDfNt7atw4xFl9-26" style="edgeStyle=orthogonalEdgeStyle;rounded=0;orthogonalLoop=1;jettySize=auto;html=1;" edge="1" parent="1" source="34_nBhXDfNt7atw4xFl9-22" target="34_nBhXDfNt7atw4xFl9-15">
          <mxGeometry relative="1" as="geometry" />
        </mxCell>
        <mxCell id="34_nBhXDfNt7atw4xFl9-22" value="&lt;b&gt;&lt;font style=&quot;font-size: 18px;&quot;&gt;LobeChat&lt;/font&gt;&lt;/b&gt;" style="rounded=0;whiteSpace=wrap;html=1;" vertex="1" parent="1">
          <mxGeometry x="150" y="435" width="120" height="60" as="geometry" />
        </mxCell>
      </root>
    </mxGraphModel>
  </diagram>
</mxfile>
